Coordinates
version=1
nRows=19
nColumns=63
inDegrees=yes

Units are S.I. units (second, meters, Newtons, ...)
If the header above contains a line with 'inDegrees', this indicates whether rotational values are in degrees (yes) or radians (no).

endheader
time	pelvis_tilt	pelvis_list	pelvis_rotation	pelvis_tx	pelvis_ty	pelvis_tz	hip_flexion_r	hip_adduction_r	hip_rotation_r	knee_angle_r	knee_angle_r_beta	ankle_angle_r	subtalar_angle_r	mtp_angle_r	hip_flexion_l	hip_adduction_l	hip_rotation_l	knee_angle_l	knee_angle_l_beta	ankle_angle_l	subtalar_angle_l	mtp_angle_l	L5_S1_Flex_Ext	L5_S1_Lat_Bending	L5_S1_axial_rotation	L4_L5_Flex_Ext	L4_L5_Lat_Bending	L4_L5_axial_rotation	L3_L4_Flex_Ext	L3_L4_Lat_Bending	L3_L4_axial_rotation	L2_L3_Flex_Ext	L2_L3_Lat_Bending	L2_L3_axial_rotation	L1_L2_Flex_Ext	L1_L2_Lat_Bending	L1_L2_axial_rotation	L1_T12_Flex_Ext	L1_T12_Lat_Bending	L1_T12_axial_rotation	Abs_r3	Abs_r2	Abs_r1	Abs_t1	Abs_t2	neck_flexion	neck_bending	neck_rotation	arm_flex_r	arm_add_r	arm_rot_r	elbow_flex_r	pro_sup_r	wrist_flex_r	wrist_dev_r	arm_flex_l	arm_add_l	arm_rot_l	elbow_flex_l	pro_sup_l	wrist_flex_l	wrist_dev_l
0.000000	4.364756	-3.264391	89.577709	0.113751	0.982686	0.307034	-4.640138	-1.234858	-20.978714	8.262548	0.144209	25.867976	18.063530	0.000000	-4.641394	0.001847	15.825725	7.299163	0.127394	20.038753	-17.457613	0.000000	0.313346	-0.057209	-1.326726	0.581915	-0.076089	-1.409647	0.514796	-0.139099	-1.409647	0.358123	-0.139099	-1.160885	0.290973	-0.116662	-1.077965	0.179046	-0.088617	-0.995045	2.238200	-0.647165	-7.378853	0.000000	0.000000	13.317906	8.574154	10.608530	7.099147	-19.662673	59.002464	83.507774	89.075683	3.464330	-0.548445	0.623514	-30.544362	59.200569	87.213170	88.505562	6.226268	-16.118169
0.016667	4.105975	-3.141812	89.054325	0.114414	0.982905	0.305836	-4.807068	-1.559973	-20.554316	8.271789	0.144370	26.060245	18.086056	0.000000	-5.038488	0.259146	15.724432	7.115664	0.124192	19.721411	-17.582527	0.000000	0.322814	-0.095169	-1.254768	0.599498	-0.126575	-1.333191	0.530352	-0.231394	-1.333191	0.368944	-0.231394	-1.097922	0.299765	-0.194069	-1.019499	0.184456	-0.147417	-0.941076	2.305830	-1.076571	-6.978641	0.000000	0.000000	13.220806	9.413066	9.656685	7.081301	-19.642609	60.045299	83.223310	88.843501	2.015357	-1.016344	0.076382	-30.691074	58.577058	87.708787	87.467232	6.100032	-15.004059
0.033333	3.911222	-3.057223	88.674198	0.114910	0.983023	0.304947	-4.928362	-1.800699	-20.247644	8.279470	0.144504	26.220056	18.105896	0.000000	-5.329196	0.447880	15.667373	6.991478	0.122024	19.473914	-17.682527	0.000000	0.329545	-0.124170	-1.202806	0.611999	-0.165147	-1.277981	0.541410	-0.301908	-1.277981	0.376637	-0.301908	-1.052455	0.306016	-0.253208	-0.977280	0.188302	-0.192340	-0.902104	2.353909	-1.404640	-6.689644	0.000000	0.000000	13.204352	10.079743	8.828764	7.059948	-19.630103	60.853042	83.035660	88.630327	0.925062	-1.383703	-0.357719	-30.813898	58.017695	88.167725	86.642308	6.204890	-13.961034
0.050000	3.774657	-3.006657	88.423174	0.115256	0.983051	0.304336	-5.008597	-1.965059	-20.046914	8.285671	0.144612	26.350126	18.123149	0.000000	-5.524247	0.574672	15.649165	6.920487	0.120785	19.291052	-17.759461	0.000000	0.333823	-0.144975	-1.168952	0.619943	-0.192816	-1.242011	0.548438	-0.352491	-1.242011	0.381527	-0.352491	-1.022833	0.309988	-0.295632	-0.949773	0.190747	-0.224566	-0.876714	2.384467	-1.639982	-6.501359	0.000000	0.000000	13.258976	10.590530	8.118718	7.033895	-19.624460	61.446081	82.931796	88.436696	0.163237	-1.659824	-0.689058	-30.913137	57.520666	88.586752	86.009914	6.502887	-12.994138
0.066667	3.690442	-2.986146	88.287098	0.115465	0.982997	0.303975	-5.052353	-2.061078	-19.940341	8.290473	0.144696	26.453169	18.137917	0.000000	-5.634375	0.646141	15.664428	6.896573	0.120368	19.167610	-17.815182	0.000000	0.335933	-0.158343	-1.151317	0.623861	-0.210596	-1.223275	0.551904	-0.384995	-1.223275	0.383937	-0.384995	-1.007403	0.311947	-0.322893	-0.935445	0.191952	-0.245273	-0.863488	2.399534	-1.791208	-6.403281	0.000000	0.000000	13.375112	10.961771	7.520499	7.001951	-19.624983	61.844809	82.898691	88.263140	-0.300325	-1.854009	-0.927904	-30.989093	57.084160	88.962637	85.549171	6.956071	-12.108413
0.083333	3.652737	-2.991723	88.251813	0.115550	0.982870	0.303834	-5.064207	-2.096779	-19.916142	8.293956	0.144757	26.531902	18.150297	0.000000	-5.670311	0.668909	15.707779	6.913616	0.120665	19.098377	-17.851539	0.000000	0.336157	-0.165037	-1.148014	0.624278	-0.219499	-1.219764	0.552273	-0.401270	-1.219764	0.384194	-0.401270	-1.004512	0.312156	-0.336543	-0.932761	0.192080	-0.255642	-0.861010	2.401139	-1.866928	-6.384907	0.000000	0.000000	13.543193	11.209811	7.028058	6.962924	-19.630975	62.069616	82.923319	88.110194	-0.495835	-1.975560	-1.084525	-31.042070	56.706366	89.292152	85.239203	7.526489	-11.308901
0.100000	3.655704	-3.019422	88.303165	0.115528	0.982680	0.303882	-5.048739	-2.080186	-19.962531	8.296202	0.144796	26.589039	18.160390	0.000000	-5.642787	0.649597	15.773837	6.965498	0.121571	19.078140	-17.870382	0.000000	0.334782	-0.165817	-1.157152	0.621723	-0.220536	-1.229474	0.550013	-0.403167	-1.229474	0.382622	-0.403167	-1.012508	0.310878	-0.338134	-0.940186	0.191294	-0.256850	-0.867864	2.391313	-1.875753	-6.435733	0.000000	0.000000	13.753651	11.350994	6.635346	6.915622	-19.641739	62.140893	82.992653	87.978390	-0.453500	-2.033779	-1.169189	-31.072369	56.385470	89.572065	85.059132	8.176189	-10.600647
0.116667	3.693502	-3.065274	88.426998	0.115411	0.982436	0.304091	-5.010526	-2.019323	-20.067724	8.297290	0.144815	26.627297	18.168296	0.000000	-5.562534	0.594826	15.857221	7.046101	0.122978	19.101685	-17.873562	0.000000	0.332090	-0.161445	-1.176844	0.616724	-0.214721	-1.250397	0.545591	-0.392536	-1.250397	0.379546	-0.392536	-1.029739	0.308379	-0.329218	-0.956186	0.189756	-0.250078	-0.882633	2.372085	-1.826294	-6.545254	0.000000	0.000000	13.996922	11.401664	6.336314	6.858852	-19.656578	62.079029	83.093667	87.868263	-0.203528	-2.037970	-1.192165	-31.080293	56.119662	89.799145	84.988083	8.867217	-9.988691
0.133333	3.760294	-3.125313	88.609156	0.115215	0.982146	0.304430	-4.954147	-1.922215	-20.219938	8.297302	0.144815	26.649391	18.174115	0.000000	-5.440284	0.511218	15.952548	7.149307	0.124779	19.163800	-17.862929	0.000000	0.328366	-0.152681	-1.205201	0.609808	-0.203066	-1.280526	0.539472	-0.371229	-1.280526	0.375289	-0.371229	-1.054551	0.304921	-0.311348	-0.979226	0.187628	-0.236503	-0.903901	2.345485	-1.727161	-6.702968	0.000000	0.000000	14.263436	11.378166	6.124914	6.791424	-19.674797	61.904416	83.213332	87.780345	0.223872	-1.997434	-1.163722	-31.066146	55.907129	89.970164	85.005178	9.561620	-9.478079
0.150000	3.850240	-3.195572	88.835485	0.114953	0.981821	0.304871	-4.884182	-1.796885	-20.407386	8.296318	0.144798	26.658036	18.177945	0.000000	-5.286768	0.405392	16.054439	7.268996	0.126868	19.259273	-17.840334	0.000000	0.323894	-0.140288	-1.240335	0.601504	-0.186583	-1.317856	0.532126	-0.341096	-1.317856	0.370179	-0.341096	-1.085293	0.300768	-0.286075	-1.007772	0.185073	-0.217306	-0.930251	2.313544	-1.586965	-6.898369	0.000000	0.000000	14.543628	11.296845	5.995097	6.712145	-19.695697	61.637443	83.338623	87.715171	0.798491	-1.921473	-1.094127	-31.030230	55.746060	90.081889	85.089540	10.221447	-9.073851
0.166667	3.957501	-3.272083	89.091829	0.114640	0.981470	0.305382	-4.805207	-1.651357	-20.618285	8.294420	0.144765	26.655948	18.179887	0.000000	-5.112718	0.283971	16.157510	7.399050	0.129138	19.382889	-17.807627	0.000000	0.318959	-0.125026	-1.280356	0.592338	-0.166284	-1.360378	0.524017	-0.303988	-1.360378	0.364538	-0.303988	-1.120311	0.296185	-0.254953	-1.040289	0.182253	-0.193665	-0.960267	2.278290	-1.414317	-7.120955	0.000000	0.000000	14.827931	11.174044	5.940814	6.619822	-19.718582	61.298503	83.456512	87.673274	1.490121	-1.819389	-0.993650	-30.972847	55.634642	90.131092	85.220291	10.808744	-8.781052
0.183333	4.069614	-3.355048	89.292009	0.114359	0.981101	0.305897	-4.707131	-1.512650	-20.781047	8.304238	0.144936	26.654115	18.182346	0.000000	-4.946171	0.165167	16.159184	7.521588	0.131276	19.476964	-17.776631	0.000000	0.314334	-0.109287	-1.310482	0.583750	-0.145352	-1.392387	0.516420	-0.265721	-1.392387	0.359253	-0.265721	-1.146672	0.291891	-0.222858	-1.064767	0.179611	-0.169286	-0.982862	2.245259	-1.236277	-7.288508	0.000000	0.000000	15.156063	11.068627	5.855638	6.447076	-19.761599	60.869143	83.587012	87.693229	2.107527	-1.763257	-0.912048	-30.889015	55.594074	90.106350	85.279593	11.076945	-8.638541
0.200000	4.179418	-3.424443	89.513659	0.114044	0.980763	0.306439	-4.625400	-1.374116	-20.963626	8.307611	0.144995	26.629454	18.182058	0.000000	-4.787727	0.050503	16.210077	7.636834	0.133288	19.617019	-17.730548	0.000000	0.309653	-0.093054	-1.345169	0.575057	-0.123762	-1.429242	0.508729	-0.226252	-1.429242	0.353903	-0.226252	-1.177023	0.287544	-0.189757	-1.092950	0.176936	-0.144141	-1.008877	2.211821	-1.052650	-7.481425	0.000000	0.000000	15.394385	10.979799	5.889462	6.276155	-19.791702	60.468701	83.648807	87.733526	2.877926	-1.681379	-0.803444	-30.790748	55.632059	89.999479	85.346584	11.126170	-8.698059
0.216667	4.288893	-3.489578	89.736464	0.113685	0.980436	0.306941	-4.549785	-1.239413	-21.158560	8.311275	0.145059	26.589320	18.176046	0.000000	-4.632094	-0.057402	16.270637	7.753739	0.135328	19.804281	-17.671922	0.000000	0.307043	-0.075735	-1.376557	0.570209	-0.100727	-1.462592	0.504440	-0.184142	-1.462592	0.350919	-0.184142	-1.204488	0.285120	-0.154439	-1.118453	0.175444	-0.117313	-1.032418	2.193175	-0.856729	-7.656000	0.000000	0.000000	15.589318	10.868603	5.965726	6.066219	-19.825510	60.084610	83.654641	87.914796	3.553020	-1.664640	-0.638808	-30.664594	55.797951	89.800350	85.395074	10.870791	-8.955706
0.233333	4.384277	-3.532749	89.934394	0.113337	0.980131	0.307400	-4.500278	-1.121575	-21.308486	8.303366	0.144921	26.553090	18.165470	0.000000	-4.518788	-0.147366	16.336014	7.836878	0.136779	20.004306	-17.616526	0.000000	0.304669	-0.059149	-1.413039	0.565800	-0.078668	-1.501354	0.500540	-0.143814	-1.501354	0.348206	-0.143814	-1.236409	0.282915	-0.120616	-1.148094	0.174088	-0.091621	-1.059779	2.176217	-0.669100	-7.858898	0.000000	0.000000	15.694124	10.810882	6.185882	5.939029	-19.825126	59.819267	83.522460	88.218284	4.261939	-1.750431	-0.522202	-30.516927	55.920527	89.557113	85.396496	10.425589	-9.279807
0.250000	4.468700	-3.553814	90.127641	0.112965	0.979832	0.307793	-4.478883	-1.017759	-21.451061	8.290000	0.144688	26.530513	18.154825	0.000000	-4.438927	-0.223013	16.405712	7.910393	0.138062	20.214286	-17.559839	0.000000	0.302164	-0.042791	-1.459073	0.561148	-0.056911	-1.550265	0.496425	-0.104041	-1.550265	0.345343	-0.104041	-1.276689	0.280589	-0.087258	-1.185497	0.172656	-0.066283	-1.094305	2.158324	-0.484055	-8.114928	0.000000	0.000000	15.744809	10.779498	6.523888	5.872027	-19.776433	59.593053	83.260897	88.708690	5.082101	-1.861363	-0.453960	-30.347357	55.998581	89.276200	85.417331	9.772690	-9.675410
0.266667	4.547369	-3.551521	90.300850	0.112581	0.979527	0.308093	-4.484662	-0.925087	-21.572714	8.276716	0.144456	26.540222	18.146921	0.000000	-4.400348	-0.289161	16.449022	7.971465	0.139128	20.429296	-17.497916	0.000000	0.298700	-0.025751	-1.514734	0.554715	-0.034249	-1.609405	0.490734	-0.062612	-1.609405	0.341384	-0.062612	-1.325392	0.277372	-0.052512	-1.230721	0.170677	-0.039889	-1.136050	2.133582	-0.291304	-8.424494	0.000000	0.000000	15.772450	10.777013	7.001056	5.875527	-19.689411	59.410757	82.885242	89.121878	6.010523	-1.877332	-0.464706	-30.152215	55.994071	88.962072	85.483733	9.007577	-10.080410
0.283333	4.616144	-3.532528	90.473883	0.112162	0.979212	0.308282	-4.518485	-0.845456	-21.688428	8.252687	0.144037	26.587542	18.141576	0.000000	-4.389044	-0.343259	16.496718	8.036532	0.140264	20.626552	-17.443503	0.000000	0.295011	-0.009355	-1.577951	0.547865	-0.012442	-1.676573	0.484674	-0.022745	-1.676573	0.337168	-0.022745	-1.380707	0.273947	-0.019076	-1.282085	0.168569	-0.014490	-1.183463	2.107236	-0.105821	-8.776091	0.000000	0.000000	15.793614	10.801707	7.526559	5.908608	-19.580506	59.215519	82.436004	89.288139	7.053168	-1.682731	-0.512726	-29.934889	55.955986	88.578320	85.592932	8.337044	-10.450477
0.300000	4.679057	-3.512082	90.629038	0.111752	0.978874	0.308350	-4.561267	-0.775386	-21.791641	8.218952	0.143448	26.681897	18.137131	0.000000	-4.395012	-0.390995	16.533043	8.093525	0.141259	20.812070	-17.396726	0.000000	0.292313	0.006161	-1.639381	0.542854	0.008195	-1.741842	0.480240	0.014981	-1.741842	0.334084	0.014981	-1.434458	0.271441	0.012564	-1.331997	0.167027	0.009544	-1.229536	2.087960	0.069700	-9.117744	0.000000	0.000000	15.841067	10.844808	8.024535	5.931778	-19.494273	58.991147	81.987832	88.967546	8.038573	-1.208981	-0.567904	-29.704366	55.937690	88.098448	85.649430	7.874846	-10.769429
